<svg width="34" height="34" viewBox="0 0 34 34" fill="none" xmlns="http://www.w3.org/2000/svg">
<path d="M33.6668 30.3333C33.6668 30.9926 33.4713 31.6371 33.1051 32.1852C32.7388 32.7334 32.2182 33.1606 31.6091 33.4129C31 33.6652 30.3298 33.7312 29.6832 33.6026C29.0366 33.474 28.4426 33.1565 27.9765 32.6903C27.5103 32.2242 27.1928 31.6302 27.0642 30.9836C26.9356 30.337 27.0016 29.6668 27.2539 29.0577C27.5062 28.4486 27.9334 27.928 28.4816 27.5617C29.0298 27.1955 29.6742 27 30.3335 27C31.2176 27 32.0654 27.3512 32.6905 27.9763C33.3156 28.6014 33.6668 29.4493 33.6668 30.3333ZM3.66683 28.6666C4.3261 28.6666 4.97057 28.4712 5.51873 28.1049C6.06689 27.7386 6.49414 27.218 6.74643 26.6089C6.99872 25.9998 7.06473 25.3296 6.93611 24.683C6.8075 24.0364 6.49003 23.4425 6.02385 22.9763C5.55768 22.5101 4.96373 22.1926 4.31713 22.064C3.67053 21.9354 3.00031 22.0014 2.39122 22.2537C1.78213 22.506 1.26154 22.9332 0.895264 23.4814C0.528993 24.0296 0.333496 24.674 0.333496 25.3333C0.333496 26.2174 0.684685 27.0652 1.30981 27.6903C1.93493 28.3155 2.78277 28.6666 3.66683 28.6666ZM30.3335 0.333312C29.6742 0.333312 29.0298 0.528808 28.4816 0.895079C27.9334 1.26135 27.5062 1.78195 27.2539 2.39103C27.0016 3.00012 26.9356 3.67034 27.0642 4.31695C27.1928 4.96355 27.5103 5.55749 27.9765 6.02367C28.4426 6.48984 29.0366 6.80731 29.6832 6.93593C30.3298 7.06455 31 6.99854 31.6091 6.74624C32.2182 6.49395 32.7388 6.06671 33.1051 5.51855C33.4713 4.97038 33.6668 4.32592 33.6668 3.66664C33.6668 2.78259 33.3156 1.93474 32.6905 1.30962C32.0654 0.684501 31.2176 0.333312 30.3335 0.333312ZM6.191 0.404645C4.90913 0.18247 3.59113 0.468679 2.51686 1.2025C1.44259 1.93632 0.696642 3.05997 0.437399 4.33486C0.178156 5.60975 0.426035 6.93549 1.12841 8.03058C1.83078 9.12568 2.93232 9.90388 4.19916 10.2C5.44698 10.4968 6.76148 10.2908 7.85866 9.62648L9.84033 11.6081C10.2713 12.0375 10.5752 12.5775 10.7187 13.1686C10.8622 13.7598 10.8395 14.379 10.6533 14.9581C10.4409 15.6179 10.333 16.3069 10.3335 17C10.3335 17.2013 10.3431 17.4001 10.3622 17.5965C10.4121 18.1979 10.2937 18.8013 10.0203 19.3393C9.74697 19.8772 9.32934 20.3286 8.81416 20.6428L7.82916 21.2585C8.41504 21.8644 8.86254 22.5902 9.14083 23.3858L10.1475 22.7566C10.6685 22.4329 11.2688 22.2595 11.8822 22.2555C12.4955 22.2516 13.0981 22.4173 13.6232 22.7343C14.6434 23.3456 15.8108 23.6679 17.0002 23.6666C17.6934 23.6673 18.3825 23.5594 19.0423 23.3468C19.6214 23.1606 20.2407 23.138 20.8318 23.2814C21.4229 23.4249 21.963 23.7288 22.3923 24.1596L25.4307 27.198C25.8857 26.4884 26.4886 25.8855 27.1982 25.4305L24.16 22.3921C23.7291 21.9628 23.4251 21.4228 23.2816 20.8317C23.1382 20.2405 23.1608 19.6212 23.347 19.0421C23.7734 17.7139 23.7734 16.2854 23.347 14.9571C23.1608 14.378 23.1382 13.7588 23.2816 13.1676C23.4251 12.5765 23.7291 12.0365 24.16 11.6071L27.1982 8.56881C26.4886 8.11376 25.8857 7.51086 25.4307 6.80131L22.3923 9.83948C21.963 10.2704 21.423 10.5744 20.8318 10.7178C20.2407 10.8613 19.6214 10.8387 19.0423 10.6525C17.7141 10.226 16.2856 10.226 14.9573 10.6525C14.3782 10.8387 13.759 10.8613 13.1678 10.7178C12.5767 10.5744 12.0367 10.2704 11.6073 9.83948L9.62566 7.85781C10.2902 6.76095 10.4965 5.44671 10.2002 4.19898C9.97246 3.24556 9.47209 2.37907 8.76015 1.70528C8.04821 1.03149 7.1555 0.579552 6.191 0.404645Z" fill="#0083FF"/>
</svg>
