<svg width="40" height="40" viewBox="0 0 40 40" fill="none" xmlns="http://www.w3.org/2000/svg">
<g clip-path="url(#clip0_6_876)">
<path d="M4.6875 17.6562C4.6875 17.0087 4.16321 16.4844 3.51562 16.4844H1.17187C0.524292 16.4844 0 17.0087 0 17.6562C0 18.3041 0.524292 18.8281 1.17187 18.8281H3.51562C4.16321 18.8281 4.6875 18.3041 4.6875 17.6562Z" fill="#0083FF"/>
<path d="M38.8281 16.4844H36.4844C35.8368 16.4844 35.3125 17.0087 35.3125 17.6562C35.3125 18.3041 35.8368 18.8281 36.4844 18.8281H38.8281C39.4757 18.8281 40 18.3041 40 17.6562C40 17.0087 39.4757 16.4844 38.8281 16.4844Z" fill="#0083FF"/>
<path d="M6.37815 8.43811L4.34782 7.26624C3.78721 6.94214 3.07066 7.1344 2.74687 7.69531C2.42308 8.25623 2.61534 8.97247 3.17594 9.29626L5.20628 10.4681C5.76322 10.7898 6.48069 10.6024 6.80723 10.0391C7.13102 9.47815 6.93876 8.7619 6.37815 8.43811Z" fill="#0083FF"/>
<path d="M36.824 26.0162L34.7936 24.8443C34.2318 24.5214 33.5155 24.7125 33.1927 25.2734C32.8689 25.8343 33.0611 26.5505 33.6217 26.8743L35.6521 28.0462C36.209 28.3679 36.9265 28.1805 37.253 27.6171C37.5768 27.0562 37.3846 26.34 36.824 26.0162Z" fill="#0083FF"/>
<path d="M10.782 3.78788C11.1082 4.35124 11.826 4.53861 12.3829 4.21696C12.9438 3.89286 13.1361 3.17661 12.812 2.61601L11.6401 0.585672C11.3163 0.0262854 10.5964 -0.166281 10.0392 0.156595C9.47827 0.480387 9.28601 1.19694 9.61011 1.75755L10.782 3.78788Z" fill="#0083FF"/>
<path d="M5.20628 24.8443L3.17594 26.0162C2.61534 26.34 2.42308 27.0562 2.74687 27.6171C3.07341 28.1808 3.79087 28.3682 4.34782 28.0462L6.37815 26.8743C6.93876 26.5505 7.13102 25.8343 6.80723 25.2734C6.48222 24.7125 5.76231 24.5214 5.20628 24.8443Z" fill="#0083FF"/>
<path d="M34.7936 10.4681L36.824 9.29626C37.3846 8.97247 37.5768 8.25623 37.253 7.69531C36.928 7.1344 36.2081 6.94214 35.6521 7.26624L33.6217 8.43811C33.0611 8.7619 32.8689 9.47815 33.1927 10.0391C33.5192 10.6027 34.2367 10.7901 34.7936 10.4681Z" fill="#0083FF"/>
<path d="M27.6171 4.21695C28.174 4.5386 28.8918 4.35122 29.218 3.78787L30.3899 1.75753C30.714 1.19693 30.5217 0.480373 29.9608 0.156582C29.4011 -0.165989 28.6837 0.0262718 28.3599 0.585659L27.188 2.61599C26.8639 3.1766 27.0562 3.89315 27.6171 4.21695Z" fill="#0083FF"/>
<path d="M28.1264 7.64956C25.0994 5.18801 21.133 4.24166 17.2384 5.05404C12.1792 6.10812 8.18746 10.2564 7.30611 15.3745C6.56789 19.6613 7.98146 23.9951 11.086 26.9696C12.7376 28.5498 13.7417 30.6644 14.0188 32.8906H18.828V27.3862L14.4014 20.7462L12.1401 18.4848C11.6823 18.0271 11.6823 17.2855 12.1401 16.8277C12.5979 16.37 13.3394 16.37 13.7972 16.8277L15.3124 18.3429L16.8276 16.8277C17.2854 16.37 18.0269 16.37 18.4847 16.8277L19.9999 18.3429L21.5151 16.8277C21.9729 16.37 22.7144 16.37 23.1722 16.8277L24.6874 18.3429L26.2026 16.8277C26.6604 16.37 27.4019 16.37 27.8597 16.8277C28.3175 17.2855 28.3175 18.0271 27.8597 18.4848L25.5983 20.7462L21.1718 27.3862V32.8906H25.9139C26.0506 30.7852 27.0501 28.7232 28.8347 27.0438C31.4119 24.6167 32.8905 21.1948 32.8905 17.6563C32.8905 13.7583 31.1544 10.1111 28.1264 7.64956Z" fill="#0083FF"/>
<path d="M22.3437 19.3134L20.8285 20.8286C20.3707 21.2863 19.6292 21.2863 19.1714 20.8286L17.6562 19.3134L16.8203 20.1492L19.9999 24.9188L23.1796 20.1492L22.3437 19.3134Z" fill="#0083FF"/>
<path d="M14.1406 36.4844C14.1406 38.4229 15.7178 40 17.6562 40H22.3437C24.2822 40 25.8594 38.4229 25.8594 36.4844V35.2344H14.1406V36.4844Z" fill="#0083FF"/>
</g>
<defs>
<clipPath id="clip0_6_876">
<rect width="40" height="40" fill="white"/>
</clipPath>
</defs>
</svg>
