<svg width="34" height="40" viewBox="0 0 34 40" fill="none" xmlns="http://www.w3.org/2000/svg">
<path d="M32.7974 9.17996L17.6816 0.187383C17.2616 -0.0624609 16.7384 -0.0624609 16.3183 0.187383L1.20242 9.17996C0.798437 9.42035 0.550781 9.85582 0.550781 10.3259V15.4593C0.550781 26.2713 6.79766 36.1464 16.5185 39.91C16.828 40.0299 17.1716 40.03 17.4813 39.91C27.1786 36.1558 33.449 26.3021 33.449 15.4593V10.3259C33.4491 9.85574 33.2015 9.42035 32.7974 9.17996ZM23.5872 17.0039L15.2305 25.3606C14.7098 25.8813 13.8656 25.8813 13.3449 25.3606L10.4121 22.4279C9.89141 21.9072 9.89141 21.0629 10.4121 20.5422C10.9328 20.0216 11.7771 20.0216 12.2977 20.5422L14.2877 22.5321L21.7016 15.1182C22.2222 14.5976 23.0665 14.5976 23.5872 15.1182C24.108 15.639 24.108 16.4832 23.5872 17.0039Z" fill="#0083FF"/>
</svg>
