<svg width="20" height="20" viewBox="0 0 20 20" fill="none" xmlns="http://www.w3.org/2000/svg">
<path d="M16.6665 6.66667H11.9898L12.9257 3.86084C13.094 3.35417 13.009 2.79251 12.6965 2.35917C12.384 1.92584 11.8773 1.66667 11.3432 1.66667H9.99984C9.75234 1.66667 9.51817 1.77667 9.359 1.96667L5.44234 6.66667H3.33317C2.414 6.66667 1.6665 7.41417 1.6665 8.33334V15.8333C1.6665 16.7525 2.414 17.5 3.33317 17.5H14.4223C14.7614 17.4989 15.0922 17.3949 15.3709 17.2017C15.6495 17.0086 15.8631 16.7354 15.9832 16.4183L18.2807 10.2925C18.3156 10.1989 18.3333 10.0999 18.3332 10V8.33334C18.3332 7.41417 17.5857 6.66667 16.6665 6.66667ZM3.33317 8.33334H4.99984V15.8333H3.33317V8.33334ZM16.6665 9.84917L14.4223 15.8333H6.6665V7.80167L10.3898 3.33334H11.3448L10.0432 7.23584C10.0009 7.3611 9.98913 7.49463 10.0088 7.62536C10.0285 7.75609 10.079 7.88025 10.1562 7.98754C10.2335 8.09483 10.3351 8.18217 10.4529 8.24231C10.5706 8.30244 10.701 8.33365 10.8332 8.33334H16.6665V9.84917Z" fill="#0254BC"/>
</svg>
